<?xml version="1.0" encoding="UTF-8" standalone="no"?>
<!-- Created with Inkscape (http://www.inkscape.org/) -->

<svg
   xmlns:dc="http://purl.org/dc/elements/1.1/"
   xmlns:cc="http://creativecommons.org/ns#"
   xmlns:rdf="http://www.w3.org/1999/02/22-rdf-syntax-ns#"
   xmlns:svg="http://www.w3.org/2000/svg"
   xmlns="http://www.w3.org/2000/svg"
   xmlns:sodipodi="http://sodipodi.sourceforge.net/DTD/sodipodi-0.dtd"
   xmlns:inkscape="http://www.inkscape.org/namespaces/inkscape"
   width="400px"
   height="480px"
   id="svg3031"
   version="1.1"
   inkscape:version="0.48.0 r9654"
   sodipodi:docname="Simply_Laced_Dynkin_Diagrams.svg">
  <defs
     id="defs3033">
    <inkscape:perspective
       sodipodi:type="inkscape:persp3d"
       inkscape:vp_x="0 : 384 : 1"
       inkscape:vp_y="0 : 1000 : 0"
       inkscape:vp_z="1024 : 384 : 1"
       inkscape:persp3d-origin="512 : 256 : 1"
       id="perspective3039" />
    <inkscape:perspective
       id="perspective3071"
       inkscape:persp3d-origin="0.5 : 0.33333333 : 1"
       inkscape:vp_z="1 : 0.5 : 1"
       inkscape:vp_y="0 : 1000 : 0"
       inkscape:vp_x="0 : 0.5 : 1"
       sodipodi:type="inkscape:persp3d" />
    <inkscape:perspective
       id="perspective3148"
       inkscape:persp3d-origin="0.5 : 0.33333333 : 1"
       inkscape:vp_z="1 : 0.5 : 1"
       inkscape:vp_y="0 : 1000 : 0"
       inkscape:vp_x="0 : 0.5 : 1"
       sodipodi:type="inkscape:persp3d" />
    <inkscape:perspective
       id="perspective3209"
       inkscape:persp3d-origin="0.5 : 0.33333333 : 1"
       inkscape:vp_z="1 : 0.5 : 1"
       inkscape:vp_y="0 : 1000 : 0"
       inkscape:vp_x="0 : 0.5 : 1"
       sodipodi:type="inkscape:persp3d" />
    <inkscape:perspective
       id="perspective3270"
       inkscape:persp3d-origin="0.5 : 0.33333333 : 1"
       inkscape:vp_z="1 : 0.5 : 1"
       inkscape:vp_y="0 : 1000 : 0"
       inkscape:vp_x="0 : 0.5 : 1"
       sodipodi:type="inkscape:persp3d" />
    <inkscape:perspective
       id="perspective3325"
       inkscape:persp3d-origin="0.5 : 0.33333333 : 1"
       inkscape:vp_z="1 : 0.5 : 1"
       inkscape:vp_y="0 : 1000 : 0"
       inkscape:vp_x="0 : 0.5 : 1"
       sodipodi:type="inkscape:persp3d" />
    <inkscape:perspective
       id="perspective3380"
       inkscape:persp3d-origin="0.5 : 0.33333333 : 1"
       inkscape:vp_z="1 : 0.5 : 1"
       inkscape:vp_y="0 : 1000 : 0"
       inkscape:vp_x="0 : 0.5 : 1"
       sodipodi:type="inkscape:persp3d" />
    <inkscape:perspective
       id="perspective3426"
       inkscape:persp3d-origin="0.5 : 0.33333333 : 1"
       inkscape:vp_z="1 : 0.5 : 1"
       inkscape:vp_y="0 : 1000 : 0"
       inkscape:vp_x="0 : 0.5 : 1"
       sodipodi:type="inkscape:persp3d" />
    <inkscape:perspective
       id="perspective3478"
       inkscape:persp3d-origin="0.5 : 0.33333333 : 1"
       inkscape:vp_z="1 : 0.5 : 1"
       inkscape:vp_y="0 : 1000 : 0"
       inkscape:vp_x="0 : 0.5 : 1"
       sodipodi:type="inkscape:persp3d" />
    <inkscape:perspective
       id="perspective3533"
       inkscape:persp3d-origin="0.5 : 0.33333333 : 1"
       inkscape:vp_z="1 : 0.5 : 1"
       inkscape:vp_y="0 : 1000 : 0"
       inkscape:vp_x="0 : 0.5 : 1"
       sodipodi:type="inkscape:persp3d" />
  </defs>
  <sodipodi:namedview
     id="base"
     pagecolor="#ffffff"
     bordercolor="#666666"
     borderopacity="1.0"
     inkscape:pageopacity="0.0"
     inkscape:pageshadow="2"
     inkscape:zoom="1"
     inkscape:cx="261.80095"
     inkscape:cy="217.3956"
     inkscape:current-layer="layer1"
     inkscape:document-units="px"
     showgrid="false"
     inkscape:window-width="800"
     inkscape:window-height="800"
     inkscape:window-x="132"
     inkscape:window-y="132"
     inkscape:window-maximized="0" />
  <metadata
     id="metadata3036">
    <rdf:RDF>
      <cc:Work
         rdf:about="">
        <dc:format>image/svg+xml</dc:format>
        <dc:type
           rdf:resource="http://purl.org/dc/dcmitype/StillImage" />
        <dc:title />
      </cc:Work>
    </rdf:RDF>
  </metadata>
  <g
     id="layer1"
     inkscape:label="Layer 1"
     inkscape:groupmode="layer">
    <text
       style="font-size:36px"
       x="8.4297009"
       y="50"
       font-size="36"
       id="text3">A</text>
    <text
       style="font-size:28px"
       x="34.429699"
       y="57"
       font-size="28"
       id="text5">n</text>
    <g
       transform="translate(15.4297,21)"
       style="fill:#ffff00;stroke:#000000;stroke-width:2"
       id="g7">
      <line
         x1="50"
         y1="25"
         x2="150"
         y2="25"
         id="line9" />
      <line
         style="stroke-dasharray:10, 10"
         x1="150"
         y1="25"
         x2="300"
         y2="25"
         id="line11" />
      <line
         x1="300"
         y1="25"
         x2="350"
         y2="25"
         id="line13" />
      <circle
         d="m 60,25 c 0,5.522847 -4.477153,10 -10,10 -5.522847,0 -10,-4.477153 -10,-10 0,-5.522847 4.477153,-10 10,-10 5.522847,0 10,4.477153 10,10 z"
         sodipodi:ry="10"
         sodipodi:rx="10"
         sodipodi:cy="25"
         sodipodi:cx="50"
         cx="50"
         cy="25"
         r="10"
         id="circle15" />
      <circle
         d="m 110,25 c 0,5.522847 -4.47715,10 -10,10 -5.522847,0 -10,-4.477153 -10,-10 0,-5.522847 4.477153,-10 10,-10 5.52285,0 10,4.477153 10,10 z"
         sodipodi:ry="10"
         sodipodi:rx="10"
         sodipodi:cy="25"
         sodipodi:cx="100"
         cx="100"
         cy="25"
         r="10"
         id="circle17" />
      <circle
         d="m 160,25 c 0,5.522847 -4.47715,10 -10,10 -5.52285,0 -10,-4.477153 -10,-10 0,-5.522847 4.47715,-10 10,-10 5.52285,0 10,4.477153 10,10 z"
         sodipodi:ry="10"
         sodipodi:rx="10"
         sodipodi:cy="25"
         sodipodi:cx="150"
         cx="150"
         cy="25"
         r="10"
         id="circle19" />
      <circle
         d="m 310,25 c 0,5.522847 -4.47715,10 -10,10 -5.52285,0 -10,-4.477153 -10,-10 0,-5.522847 4.47715,-10 10,-10 5.52285,0 10,4.477153 10,10 z"
         sodipodi:ry="10"
         sodipodi:rx="10"
         sodipodi:cy="25"
         sodipodi:cx="300"
         cx="300"
         cy="25"
         r="10"
         id="circle21" />
      <circle
         d="m 360,25 c 0,5.522847 -4.47715,10 -10,10 -5.52285,0 -10,-4.477153 -10,-10 0,-5.522847 4.47715,-10 10,-10 5.52285,0 10,4.477153 10,10 z"
         sodipodi:ry="10"
         sodipodi:rx="10"
         sodipodi:cy="25"
         sodipodi:cx="350"
         cx="350"
         cy="25"
         r="10"
         id="circle23" />
    </g>
    <text
       style="font-size:36px"
       x="15.116699"
       y="143"
       font-size="36"
       id="text81">D</text>
    <text
       style="font-size:28px"
       x="44.116699"
       y="151"
       font-size="28"
       id="text83">n</text>
    <g
       transform="translate(33.1167,-60)"
       style="fill:#ffff00;stroke:#000000;stroke-width:2"
       id="g85">
      <line
         x1="50"
         y1="200"
         x2="100"
         y2="200"
         id="line87" />
      <line
         style="stroke-dasharray:10, 10"
         x1="100"
         y1="200"
         x2="250"
         y2="200"
         id="line89" />
      <line
         x1="250"
         y1="200"
         x2="285"
         y2="165"
         id="line91" />
      <line
         x1="250"
         y1="200"
         x2="285"
         y2="235"
         id="line93" />
      <circle
         d="m 60,200 c 0,5.52285 -4.477153,10 -10,10 -5.522847,0 -10,-4.47715 -10,-10 0,-5.52285 4.477153,-10 10,-10 5.522847,0 10,4.47715 10,10 z"
         sodipodi:ry="10"
         sodipodi:rx="10"
         sodipodi:cy="200"
         sodipodi:cx="50"
         cx="50"
         cy="200"
         r="10"
         id="circle95" />
      <circle
         d="m 260,200 c 0,5.52285 -4.47715,10 -10,10 -5.52285,0 -10,-4.47715 -10,-10 0,-5.52285 4.47715,-10 10,-10 5.52285,0 10,4.47715 10,10 z"
         sodipodi:ry="10"
         sodipodi:rx="10"
         sodipodi:cy="200"
         sodipodi:cx="250"
         cx="250"
         cy="200"
         r="10"
         id="circle97" />
      <circle
         d="m 110,200 c 0,5.52285 -4.47715,10 -10,10 -5.522847,0 -10,-4.47715 -10,-10 0,-5.52285 4.477153,-10 10,-10 5.52285,0 10,4.47715 10,10 z"
         sodipodi:ry="10"
         sodipodi:rx="10"
         sodipodi:cy="200"
         sodipodi:cx="100"
         cx="100"
         cy="200"
         r="10"
         id="circle99" />
      <circle
         d="m 295,165 c 0,5.52285 -4.47715,10 -10,10 -5.52285,0 -10,-4.47715 -10,-10 0,-5.52285 4.47715,-10 10,-10 5.52285,0 10,4.47715 10,10 z"
         sodipodi:ry="10"
         sodipodi:rx="10"
         sodipodi:cy="165"
         sodipodi:cx="285"
         cx="285"
         cy="165"
         r="10"
         id="circle101" />
      <circle
         d="m 295,235 c 0,5.52285 -4.47715,10 -10,10 -5.52285,0 -10,-4.47715 -10,-10 0,-5.52285 4.47715,-10 10,-10 5.52285,0 10,4.47715 10,10 z"
         sodipodi:ry="10"
         sodipodi:rx="10"
         sodipodi:cy="235"
         sodipodi:cx="285"
         cx="285"
         cy="235"
         r="10"
         id="circle103" />
    </g>
    <text
       style="font-size:36px"
       x="11.617004"
       y="252"
       font-size="36"
       id="text105">E</text>
    <text
       style="font-size:28px"
       x="37.617004"
       y="265"
       font-size="28"
       id="text107">6</text>
    <g
       transform="translate(20.617,-49)"
       style="fill:#ffff00;stroke:#000000;stroke-width:2"
       id="g109">
      <line
         x1="50"
         y1="300"
         x2="250"
         y2="300"
         id="line111" />
      <line
         x1="150"
         y1="300"
         x2="150"
         y2="250"
         id="line113" />
      <circle
         d="m 60,300 c 0,5.52285 -4.477153,10 -10,10 -5.522847,0 -10,-4.47715 -10,-10 0,-5.52285 4.477153,-10 10,-10 5.522847,0 10,4.47715 10,10 z"
         sodipodi:ry="10"
         sodipodi:rx="10"
         sodipodi:cy="300"
         sodipodi:cx="50"
         cx="50"
         cy="300"
         r="10"
         id="circle115" />
      <circle
         d="m 110,300 c 0,5.52285 -4.47715,10 -10,10 -5.522847,0 -10,-4.47715 -10,-10 0,-5.52285 4.477153,-10 10,-10 5.52285,0 10,4.47715 10,10 z"
         sodipodi:ry="10"
         sodipodi:rx="10"
         sodipodi:cy="300"
         sodipodi:cx="100"
         cx="100"
         cy="300"
         r="10"
         id="circle117" />
      <circle
         d="m 160,300 c 0,5.52285 -4.47715,10 -10,10 -5.52285,0 -10,-4.47715 -10,-10 0,-5.52285 4.47715,-10 10,-10 5.52285,0 10,4.47715 10,10 z"
         sodipodi:ry="10"
         sodipodi:rx="10"
         sodipodi:cy="300"
         sodipodi:cx="150"
         cx="150"
         cy="300"
         r="10"
         id="circle119" />
      <circle
         d="m 160,250 c 0,5.52285 -4.47715,10 -10,10 -5.52285,0 -10,-4.47715 -10,-10 0,-5.52285 4.47715,-10 10,-10 5.52285,0 10,4.47715 10,10 z"
         sodipodi:ry="10"
         sodipodi:rx="10"
         sodipodi:cy="250"
         sodipodi:cx="150"
         cx="150"
         cy="250"
         r="10"
         id="circle121" />
      <circle
         d="m 210,300 c 0,5.52285 -4.47715,10 -10,10 -5.52285,0 -10,-4.47715 -10,-10 0,-5.52285 4.47715,-10 10,-10 5.52285,0 10,4.47715 10,10 z"
         sodipodi:ry="10"
         sodipodi:rx="10"
         sodipodi:cy="300"
         sodipodi:cx="200"
         cx="200"
         cy="300"
         r="10"
         id="circle123" />
      <circle
         d="m 260,300 c 0,5.52285 -4.47715,10 -10,10 -5.52285,0 -10,-4.47715 -10,-10 0,-5.52285 4.47715,-10 10,-10 5.52285,0 10,4.47715 10,10 z"
         sodipodi:ry="10"
         sodipodi:rx="10"
         sodipodi:cy="300"
         sodipodi:cx="250"
         cx="250"
         cy="300"
         r="10"
         id="circle125" />
    </g>
    <text
       style="font-size:36px"
       x="9.6170044"
       y="350"
       font-size="36"
       id="text127">E</text>
    <text
       style="font-size:28px"
       x="36.617004"
       y="367"
       font-size="28"
       id="text129">7</text>
    <g
       transform="translate(18.617,-49)"
       style="fill:#ffff00;stroke:#000000;stroke-width:2"
       id="g131">
      <line
         x1="50"
         y1="400"
         x2="300"
         y2="400"
         id="line133" />
      <line
         x1="150"
         y1="400"
         x2="150"
         y2="350"
         id="line135" />
      <circle
         d="m 60,400 c 0,5.52285 -4.477153,10 -10,10 -5.522847,0 -10,-4.47715 -10,-10 0,-5.52285 4.477153,-10 10,-10 5.522847,0 10,4.47715 10,10 z"
         sodipodi:ry="10"
         sodipodi:rx="10"
         sodipodi:cy="400"
         sodipodi:cx="50"
         cx="50"
         cy="400"
         r="10"
         id="circle137" />
      <circle
         d="m 110,400 c 0,5.52285 -4.47715,10 -10,10 -5.522847,0 -10,-4.47715 -10,-10 0,-5.52285 4.477153,-10 10,-10 5.52285,0 10,4.47715 10,10 z"
         sodipodi:ry="10"
         sodipodi:rx="10"
         sodipodi:cy="400"
         sodipodi:cx="100"
         cx="100"
         cy="400"
         r="10"
         id="circle139" />
      <circle
         d="m 160,350 c 0,5.52285 -4.47715,10 -10,10 -5.52285,0 -10,-4.47715 -10,-10 0,-5.52285 4.47715,-10 10,-10 5.52285,0 10,4.47715 10,10 z"
         sodipodi:ry="10"
         sodipodi:rx="10"
         sodipodi:cy="350"
         sodipodi:cx="150"
         cx="150"
         cy="350"
         r="10"
         id="circle141" />
      <circle
         d="m 160,400 c 0,5.52285 -4.47715,10 -10,10 -5.52285,0 -10,-4.47715 -10,-10 0,-5.52285 4.47715,-10 10,-10 5.52285,0 10,4.47715 10,10 z"
         sodipodi:ry="10"
         sodipodi:rx="10"
         sodipodi:cy="400"
         sodipodi:cx="150"
         cx="150"
         cy="400"
         r="10"
         id="circle143" />
      <circle
         d="m 210,400 c 0,5.52285 -4.47715,10 -10,10 -5.52285,0 -10,-4.47715 -10,-10 0,-5.52285 4.47715,-10 10,-10 5.52285,0 10,4.47715 10,10 z"
         sodipodi:ry="10"
         sodipodi:rx="10"
         sodipodi:cy="400"
         sodipodi:cx="200"
         cx="200"
         cy="400"
         r="10"
         id="circle145" />
      <circle
         d="m 260,400 c 0,5.52285 -4.47715,10 -10,10 -5.52285,0 -10,-4.47715 -10,-10 0,-5.52285 4.47715,-10 10,-10 5.52285,0 10,4.47715 10,10 z"
         sodipodi:ry="10"
         sodipodi:rx="10"
         sodipodi:cy="400"
         sodipodi:cx="250"
         cx="250"
         cy="400"
         r="10"
         id="circle147" />
      <circle
         d="m 310,400 c 0,5.52285 -4.47715,10 -10,10 -5.52285,0 -10,-4.47715 -10,-10 0,-5.52285 4.47715,-10 10,-10 5.52285,0 10,4.47715 10,10 z"
         sodipodi:ry="10"
         sodipodi:rx="10"
         sodipodi:cy="400"
         sodipodi:cx="300"
         cx="300"
         cy="400"
         r="10"
         id="circle149" />
    </g>
    <text
       style="font-size:36px"
       x="11.617004"
       y="439"
       font-size="36"
       id="text151">E</text>
    <text
       style="font-size:28px"
       x="37.616997"
       y="450"
       font-size="28"
       id="text153">8</text>
    <g
       transform="translate(17.617,-64)"
       style="fill:#ffff00;stroke:#000000;stroke-width:2"
       id="g155">
      <line
         x1="50"
         y1="500"
         x2="350"
         y2="500"
         id="line157" />
      <line
         x1="150"
         y1="500"
         x2="150"
         y2="450"
         id="line159" />
      <circle
         d="m 60,500 c 0,5.52285 -4.477153,10 -10,10 -5.522847,0 -10,-4.47715 -10,-10 0,-5.52285 4.477153,-10 10,-10 5.522847,0 10,4.47715 10,10 z"
         sodipodi:ry="10"
         sodipodi:rx="10"
         sodipodi:cy="500"
         sodipodi:cx="50"
         cx="50"
         cy="500"
         r="10"
         id="circle161" />
      <circle
         d="m 110,500 c 0,5.52285 -4.47715,10 -10,10 -5.522847,0 -10,-4.47715 -10,-10 0,-5.52285 4.477153,-10 10,-10 5.52285,0 10,4.47715 10,10 z"
         sodipodi:ry="10"
         sodipodi:rx="10"
         sodipodi:cy="500"
         sodipodi:cx="100"
         cx="100"
         cy="500"
         r="10"
         id="circle163" />
      <circle
         d="m 160,450 c 0,5.52285 -4.47715,10 -10,10 -5.52285,0 -10,-4.47715 -10,-10 0,-5.52285 4.47715,-10 10,-10 5.52285,0 10,4.47715 10,10 z"
         sodipodi:ry="10"
         sodipodi:rx="10"
         sodipodi:cy="450"
         sodipodi:cx="150"
         cx="150"
         cy="450"
         r="10"
         id="circle165" />
      <circle
         d="m 160,500 c 0,5.52285 -4.47715,10 -10,10 -5.52285,0 -10,-4.47715 -10,-10 0,-5.52285 4.47715,-10 10,-10 5.52285,0 10,4.47715 10,10 z"
         sodipodi:ry="10"
         sodipodi:rx="10"
         sodipodi:cy="500"
         sodipodi:cx="150"
         cx="150"
         cy="500"
         r="10"
         id="circle167" />
      <circle
         d="m 210,500 c 0,5.52285 -4.47715,10 -10,10 -5.52285,0 -10,-4.47715 -10,-10 0,-5.52285 4.47715,-10 10,-10 5.52285,0 10,4.47715 10,10 z"
         sodipodi:ry="10"
         sodipodi:rx="10"
         sodipodi:cy="500"
         sodipodi:cx="200"
         cx="200"
         cy="500"
         r="10"
         id="circle169" />
      <circle
         d="m 260,500 c 0,5.52285 -4.47715,10 -10,10 -5.52285,0 -10,-4.47715 -10,-10 0,-5.52285 4.47715,-10 10,-10 5.52285,0 10,4.47715 10,10 z"
         sodipodi:ry="10"
         sodipodi:rx="10"
         sodipodi:cy="500"
         sodipodi:cx="250"
         cx="250"
         cy="500"
         r="10"
         id="circle171" />
      <circle
         d="m 310,500 c 0,5.52285 -4.47715,10 -10,10 -5.52285,0 -10,-4.47715 -10,-10 0,-5.52285 4.47715,-10 10,-10 5.52285,0 10,4.47715 10,10 z"
         sodipodi:ry="10"
         sodipodi:rx="10"
         sodipodi:cy="500"
         sodipodi:cx="300"
         cx="300"
         cy="500"
         r="10"
         id="circle173" />
      <circle
         d="m 360,500 c 0,5.52285 -4.47715,10 -10,10 -5.52285,0 -10,-4.47715 -10,-10 0,-5.52285 4.47715,-10 10,-10 5.52285,0 10,4.47715 10,10 z"
         sodipodi:ry="10"
         sodipodi:rx="10"
         sodipodi:cy="500"
         sodipodi:cx="350"
         cx="350"
         cy="500"
         r="10"
         id="circle175" />
    </g>
  </g>
</svg>
